<?xml version="1.0" standalone="no"?>
<!DOCTYPE svg PUBLIC "-//W3C//DTD SVG 20010904//EN" "http://www.w3.org/TR/2001/REC-SVG-20010904/DTD/svg10.dtd">
<svg version="1.0" xmlns="http://www.w3.org/2000/svg" width="159.000000pt" height="58.000000pt" viewBox="0 0 159.000000 58.000000" preserveAspectRatio="xMidYMid meet">
  <metadata>
Created by potrace 1.16, written by Peter Selinger 2001-2019
</metadata>
  <g transform="translate(0.000000,58.000000) scale(0.100000,-0.100000)" fill="#004028" stroke="none">
    <path d="M1480 574 c-14 -2 -74 -11 -133 -21 l-109 -16 7 -56 c4 -31 8 -57 8
-58 1 0 74 12 162 28 88 16 161 29 163 29 5 0 2 69 -4 84 -6 16 -34 18 -94 10z" />
    <path d="M128 560 c-100 -30 -147 -139 -97 -224 20 -35 59 -58 186 -111 46
-19 60 -43 44 -74 -22 -41 -103 -38 -168 6 l-37 25 -28 -31 c-35 -40 -35 -55
1 -81 112 -79 276 -68 331 23 62 101 17 197 -115 246 -95 36 -115 49 -115 76
0 51 97 60 147 13 l25 -23 35 40 34 40 -34 32 c-52 47 -137 65 -209 43z" />
    <path d="M487 553 c-4 -3 -7 -122 -7 -264 l0 -257 63 -4 62 -3 -3 268 -3 267
-53 0 c-29 0 -56 -3 -59 -7z" />
    <path d="M707 554 c-4 -4 -7 -31 -7 -61 l0 -53 225 0 226 0 -3 58 -3 57 -216
3 c-118 1 -218 -1 -222 -4z" />
    <path d="M860 210 l0 -180 65 0 65 0 0 180 0 180 -65 0 -65 0 0 -180z" />
    <path d="M1260 290 l0 -60 165 0 165 0 0 60 0 60 -165 0 -165 0 0 -60z" />
    <path d="M1244 102 c-5 -34 -7 -59 -4 -57 3 1 64 -8 135 -21 199 -36 200 -36
204 41 l2 40 -138 24 c-76 13 -149 25 -163 28 -25 4 -26 2 -36 -55z" />
  </g>
</svg>